<?xml version="1.0" encoding="utf-8"?>
<!-- Generator: Adobe Illustrator 24.3.0, SVG Export Plug-In . SVG Version: 6.00 Build 0)  -->
<svg version="1.1" id="Layer_1" xmlns="http://www.w3.org/2000/svg" xmlns:xlink="http://www.w3.org/1999/xlink" x="0px" y="0px"
	 viewBox="0 0 3278.7 1000" style="enable-background:new 0 0 3278.7 1000;" xml:space="preserve">
<style type="text/css">
	.st0{fill:url(#SVGID_1_);}
	.st1{fill:url(#SVGID_2_);}
	.st2{fill:url(#SVGID_3_);}
</style>
<g>
	<g>
		<linearGradient id="SVGID_1_" gradientUnits="userSpaceOnUse" x1="533.577" y1="933" x2="533.577" y2="67">
			<stop  offset="0" style="stop-color:#2BC4F3"/>
			<stop  offset="0.5" style="stop-color:#00AEEE"/>
			<stop  offset="1" style="stop-color:#0095DA"/>
		</linearGradient>
		<path class="st0" d="M1021,567.4c-4.5-8.3-13.9-12.5-23.1-10.5L795.5,601l-97.9-54.7c50.3-84.7,85.4-172.7,85.4-243.9
			C782.9,172.6,677.3,67,547.4,67C417.6,67,312,172.6,312,302.5c0,70.1,33.1,156.4,80.9,239l-46.1,16.1c-3,1-5.7,2.8-8,5l-289,288.9
			c-7,7.1-8.2,18-2.9,26.4c3.9,6.3,10.8,9.9,18,9.9c2.3,0,4.7-0.4,6.9-1.3L281.7,813l211.6,117.5c3,1.7,6.5,2.5,9.9,2.5
			c0.9,0,1.8-0.4,2.7-0.6c1-0.1,1.9-0.1,2.8-0.3l212.8-46.4c4-0.8,7.7-2.9,10.6-5.8l285.3-287.3C1024,586,1025.5,575.7,1021,567.4
			 M757.2,628.3L500.5,885.2L319.4,784.6l141.1-141c23.2,30.7,47.3,59.6,71.6,84.9c3.9,4.3,9.5,6.6,15.3,6.6h0.3
			c5.9-0.1,11.4-2.7,15.5-6.9c38.8-43,77.7-93.2,111.9-145.8L757.2,628.3L757.2,628.3z M547.4,109.5c106.5,0,193.1,86.7,193.1,193
			c0,68.4-38.5,157-91.1,241.1c0,0.1-0.1,0.1-0.1,0.2v0.1c-31,49.5-66.7,97.4-102.2,138.4c-98.3-108.7-192.7-268.5-192.7-379.7
			C354.4,196.2,441,109.5,547.4,109.5 M365.3,596.1l49.9-17.5c6.5,10.2,13.2,20.2,20.1,30L272.9,771l-127.2,44.5L365.3,596.1
			L365.3,596.1z M706.3,845.6l-135.9,29.6l232.3-232.3l133.9-29.2L706.3,845.6L706.3,845.6z"/>
		<linearGradient id="SVGID_2_" gradientUnits="userSpaceOnUse" x1="547.4317" y1="433.1" x2="547.4317" y2="171">
			<stop  offset="0" style="stop-color:#2BC4F3"/>
			<stop  offset="0.5" style="stop-color:#00AEEE"/>
			<stop  offset="1" style="stop-color:#0095DA"/>
		</linearGradient>
		<path class="st1" d="M678.5,302c0-72.2-58.8-131-131.1-131c-72.2,0-131,58.8-131,131c0,72.3,58.8,131.1,131,131.1
			C619.7,433.1,678.5,374.3,678.5,302 M458.7,302c0-48.8,39.7-88.6,88.5-88.6c49,0,88.8,39.7,88.8,88.6c0,49-39.8,88.6-88.8,88.6
			C498.5,390.5,458.7,350.9,458.7,302z"/>
	</g>
	<linearGradient id="SVGID_3_" gradientUnits="userSpaceOnUse" x1="1354.7009" y1="509.802" x2="3235.1228" y2="509.802">
		<stop  offset="0" style="stop-color:#2BC4F3"/>
		<stop  offset="0.5" style="stop-color:#00AEEE"/>
		<stop  offset="1" style="stop-color:#0095DA"/>
	</linearGradient>
	<path class="st2" d="M1617.1,441.7c-6.7-12.4-16.3-21.8-28.9-28.4c-12.5-6.5-27.3-9.8-44.3-9.8c-29.3,0-52.8,9.6-70.5,28.9
		c-17.7,19.3-26.5,45-26.5,77.1c0,34.3,9.3,61,27.8,80.3c18.5,19.3,44.1,28.9,76.6,28.9c22.3,0,41.1-5.6,56.4-17
		c15.4-11.3,26.6-27.6,33.7-48.8h-115v-66.8h197.2v84.3c-6.7,22.6-18.1,43.6-34.2,63.1c-16.1,19.4-36.5,35.2-61.2,47.2
		c-24.7,12-52.7,18-83.7,18c-36.8,0-69.5-8-98.3-24.1c-28.8-16.1-51.2-38.4-67.3-67c-16.1-28.6-24.1-61.3-24.1-98
		c0-36.7,8-69.5,24.1-98.3c16.1-28.8,38.4-51.2,67-67.3c28.6-16.1,61.3-24.1,98-24.1c44.5,0,82.1,10.8,112.6,32.3
		c30.6,21.6,50.8,51.4,60.7,89.6H1617.1z M1942.5,324v222.6c0,22.3,5.5,39.4,16.4,51.4c10.9,12,27,18,48.2,18c21.2,0,37.4-6,48.8-18
		c11.3-12,17-29.2,17-51.4V324h90.6v222.1c0,33.2-7.1,61.3-21.2,84.3c-14.1,23-33.1,40.3-57,51.9c-23.9,11.7-50.4,17.5-79.8,17.5
		c-29.3,0-55.6-5.7-78.7-17.2c-23.1-11.5-41.4-28.8-54.9-51.9c-13.4-23.1-20.1-51.3-20.1-84.5V324H1942.5z M2397.2,324v372.1h-90.6
		V324H2397.2z M2784.6,347.4c29.3,15.6,52,37.4,68.1,65.5c16.1,28.1,24.1,60.5,24.1,97.3c0,36.4-8,68.7-24.1,97
		c-16.1,28.3-38.9,50.2-68.4,65.7c-29.5,15.6-63.7,23.3-102.6,23.3h-139.4V324h139.4C2721,324,2755.3,331.8,2784.6,347.4z
		 M2756,589.6c19.1-18.7,28.6-45.2,28.6-79.5c0-34.3-9.5-60.9-28.6-80s-45.8-28.6-80-28.6H2633v216.2h42.9
		C2710.2,617.7,2736.9,608.3,2756,589.6z M3097.9,396.6v75.3h121.4v70h-121.4v81.6h137.3v72.6h-227.9V324h227.9v72.6H3097.9z"/>
</g>
</svg>
